<svg width="160" height="60" viewBox="0 0 160 60" fill="none" xmlns="http://www.w3.org/2000/svg">
<rect width="155" height="60" rx="15" fill="#686262" fill-opacity="0.8"/>
<rect x="155" y="17.7049" width="5" height="24.5902" fill="#686262" fill-opacity="0.8"/>
<rect x="8" y="5" width="70" height="50" rx="10" fill="#F89F11"/>
<path d="M62.0676 38.1989C61.0639 38.1989 60.169 38.0142 59.383 37.6449C58.6017 37.2756 57.9815 36.7666 57.5222 36.1179C57.0629 35.4692 56.8238 34.7259 56.8049 33.8878H59.7878C59.821 34.4512 60.0577 34.9081 60.498 35.2585C60.9384 35.6089 61.4616 35.7841 62.0676 35.7841C62.5506 35.7841 62.9767 35.6776 63.3461 35.4645C63.7201 35.2467 64.0113 34.946 64.2196 34.5625C64.4327 34.1742 64.5392 33.7292 64.5392 33.2273C64.5392 32.7159 64.4303 32.2661 64.2125 31.8778C63.9995 31.4896 63.7035 31.1866 63.3248 30.9688C62.946 30.7509 62.5127 30.6397 62.025 30.6349C61.5989 30.6349 61.1846 30.7225 60.7821 30.8977C60.3844 31.0729 60.0743 31.312 59.8517 31.6151L57.1174 31.125L57.8063 23.4545H66.6983V25.9688H60.3418L59.9654 29.6122H60.0506C60.3063 29.2524 60.6922 28.9541 61.2083 28.7173C61.7244 28.4806 62.302 28.3622 62.9412 28.3622C63.8172 28.3622 64.5984 28.5682 65.285 28.9801C65.9715 29.392 66.5137 29.9579 66.9114 30.6776C67.3091 31.3925 67.5056 32.2164 67.5009 33.1491C67.5056 34.1293 67.2784 35.0005 66.8191 35.7628C66.3645 36.5204 65.7277 37.117 64.9086 37.5526C64.0942 37.9834 63.1472 38.1989 62.0676 38.1989ZM75.3489 38.3196C74.1273 38.3149 73.0762 38.0142 72.1955 37.4176C71.3195 36.821 70.6448 35.9569 70.1713 34.8253C69.7026 33.6937 69.4706 32.3324 69.4753 30.7415C69.4753 29.1553 69.7097 27.8035 70.1784 26.6861C70.6519 25.5687 71.3266 24.7187 72.2026 24.1364C73.0833 23.5492 74.132 23.2557 75.3489 23.2557C76.5658 23.2557 77.6122 23.5492 78.4881 24.1364C79.3688 24.7235 80.0459 25.5758 80.5194 26.6932C80.9928 27.8059 81.2272 29.1553 81.2225 30.7415C81.2225 32.3371 80.9857 33.7008 80.5123 34.8324C80.0435 35.964 79.3712 36.8281 78.4952 37.4247C77.6193 38.0213 76.5705 38.3196 75.3489 38.3196ZM75.3489 35.7699C76.1822 35.7699 76.8475 35.3509 77.3446 34.5128C77.8418 33.6747 78.088 32.4176 78.0833 30.7415C78.0833 29.6383 77.9696 28.7197 77.7424 27.9858C77.5198 27.2519 77.2026 26.7003 76.7907 26.331C76.3835 25.9616 75.9029 25.777 75.3489 25.777C74.5203 25.777 73.8574 26.1913 73.3603 27.0199C72.8631 27.8485 72.6122 29.089 72.6074 30.7415C72.6074 31.8589 72.7187 32.7917 72.9412 33.5398C73.1685 34.2831 73.4881 34.8419 73.9 35.2159C74.312 35.5852 74.7949 35.7699 75.3489 35.7699ZM91.377 35.2727V34.5057C91.377 33.9233 91.5001 33.3883 91.7463 32.9006C91.9972 32.4081 92.3594 32.0152 92.8329 31.7216C93.3111 31.4233 93.8935 31.2741 94.5801 31.2741C95.2761 31.2741 95.8609 31.4209 96.3343 31.7145C96.8126 32.008 97.1724 32.401 97.4139 32.8935C97.6601 33.3812 97.7832 33.9186 97.7832 34.5057V35.2727C97.7832 35.8551 97.6601 36.3925 97.4139 36.8849C97.1677 37.3726 96.8055 37.7633 96.3272 38.0568C95.849 38.3551 95.2666 38.5043 94.5801 38.5043C93.8841 38.5043 93.2993 38.3551 92.8258 38.0568C92.3523 37.7633 91.9925 37.3726 91.7463 36.8849C91.5001 36.3925 91.377 35.8551 91.377 35.2727ZM93.4437 34.5057V35.2727C93.4437 35.6089 93.5242 35.9261 93.6852 36.2244C93.8509 36.5227 94.1492 36.6719 94.5801 36.6719C95.0109 36.6719 95.3045 36.5251 95.4608 36.2315C95.6217 35.938 95.7022 35.6184 95.7022 35.2727V34.5057C95.7022 34.16 95.6265 33.8381 95.475 33.5398C95.3234 33.2415 95.0252 33.0923 94.5801 33.0923C94.1539 33.0923 93.858 33.2415 93.6923 33.5398C93.5266 33.8381 93.4437 34.16 93.4437 34.5057ZM83.9125 26.9489V26.1818C83.9125 25.5947 84.0379 25.0573 84.2889 24.5696C84.5398 24.0772 84.902 23.6842 85.3755 23.3906C85.8538 23.0971 86.4314 22.9503 87.1085 22.9503C87.8092 22.9503 88.3964 23.0971 88.8699 23.3906C89.3433 23.6842 89.7032 24.0772 89.9494 24.5696C90.1956 25.0573 90.3187 25.5947 90.3187 26.1818V26.9489C90.3187 27.536 90.1932 28.0734 89.9423 28.5611C89.6961 29.0488 89.3339 29.4394 88.8556 29.733C88.3822 30.0218 87.7998 30.1662 87.1085 30.1662C86.4172 30.1662 85.8324 30.0194 85.3542 29.7259C84.8807 29.4276 84.5209 29.0369 84.2747 28.554C84.0332 28.0663 83.9125 27.5312 83.9125 26.9489ZM85.9934 26.1818V26.9489C85.9934 27.2945 86.0739 27.6141 86.2349 27.9077C86.4006 28.2012 86.6918 28.348 87.1085 28.348C87.5441 28.348 87.84 28.2012 87.9963 27.9077C88.1573 27.6141 88.2377 27.2945 88.2377 26.9489V26.1818C88.2377 25.8362 88.162 25.5142 88.0105 25.2159C87.859 24.9176 87.5583 24.7685 87.1085 24.7685C86.6871 24.7685 86.3959 24.92 86.2349 25.223C86.0739 25.526 85.9934 25.8456 85.9934 26.1818ZM84.85 38L94.85 23.4545H96.7108L86.7108 38H84.85Z" fill="white"/>
</svg>
