<svg width="160" height="60" viewBox="0 0 160 60" fill="none" xmlns="http://www.w3.org/2000/svg">
<rect width="155" height="60" rx="15" fill="#686262" fill-opacity="0.8"/>
<rect x="155" y="17.7049" width="5" height="24.5902" fill="#686262" fill-opacity="0.8"/>
<rect x="8" y="5" width="140" height="50" rx="10" fill="#20D92F"/>
<path d="M57.7512 23.4545V38H54.676V26.3736H54.5907L51.2598 28.4616V25.7344L54.8606 23.4545H57.7512ZM66.9114 38.3196C65.6898 38.3149 64.6387 38.0142 63.758 37.4176C62.882 36.821 62.2073 35.9569 61.7338 34.8253C61.2651 33.6937 61.0331 32.3324 61.0378 30.7415C61.0378 29.1553 61.2722 27.8035 61.7409 26.6861C62.2144 25.5687 62.8891 24.7187 63.7651 24.1364C64.6458 23.5492 65.6945 23.2557 66.9114 23.2557C68.1283 23.2557 69.1747 23.5492 70.0506 24.1364C70.9313 24.7235 71.6084 25.5758 72.0819 26.6932C72.5553 27.8059 72.7897 29.1553 72.785 30.7415C72.785 32.3371 72.5482 33.7008 72.0748 34.8324C71.606 35.964 70.9337 36.8281 70.0577 37.4247C69.1818 38.0213 68.133 38.3196 66.9114 38.3196ZM66.9114 35.7699C67.7447 35.7699 68.41 35.3509 68.9071 34.5128C69.4043 33.6747 69.6505 32.4176 69.6458 30.7415C69.6458 29.6383 69.5321 28.7197 69.3049 27.9858C69.0823 27.2519 68.7651 26.7003 68.3532 26.331C67.946 25.9616 67.4654 25.777 66.9114 25.777C66.0828 25.777 65.4199 26.1913 64.9228 27.0199C64.4256 27.8485 64.1747 29.089 64.1699 30.7415C64.1699 31.8589 64.2812 32.7917 64.5037 33.5398C64.731 34.2831 65.0506 34.8419 65.4625 35.2159C65.8745 35.5852 66.3574 35.7699 66.9114 35.7699ZM80.6809 38.3196C79.4593 38.3149 78.4082 38.0142 77.5275 37.4176C76.6516 36.821 75.9769 35.9569 75.5034 34.8253C75.0346 33.6937 74.8026 32.3324 74.8074 30.7415C74.8074 29.1553 75.0417 27.8035 75.5105 26.6861C75.984 25.5687 76.6587 24.7187 77.5346 24.1364C78.4153 23.5492 79.4641 23.2557 80.6809 23.2557C81.8978 23.2557 82.9442 23.5492 83.8201 24.1364C84.7008 24.7235 85.3779 25.5758 85.8514 26.6932C86.3249 27.8059 86.5592 29.1553 86.5545 30.7415C86.5545 32.3371 86.3178 33.7008 85.8443 34.8324C85.3755 35.964 84.7032 36.8281 83.8272 37.4247C82.9513 38.0213 81.9025 38.3196 80.6809 38.3196ZM80.6809 35.7699C81.5143 35.7699 82.1795 35.3509 82.6767 34.5128C83.1738 33.6747 83.42 32.4176 83.4153 30.7415C83.4153 29.6383 83.3017 28.7197 83.0744 27.9858C82.8519 27.2519 82.5346 26.7003 82.1227 26.331C81.7155 25.9616 81.2349 25.777 80.6809 25.777C79.8523 25.777 79.1895 26.1913 78.6923 27.0199C78.1951 27.8485 77.9442 29.089 77.9395 30.7415C77.9395 31.8589 78.0507 32.7917 78.2733 33.5398C78.5005 34.2831 78.8201 34.8419 79.2321 35.2159C79.644 35.5852 80.127 35.7699 80.6809 35.7699ZM96.709 35.2727V34.5057C96.709 33.9233 96.8321 33.3883 97.0783 32.9006C97.3292 32.4081 97.6915 32.0152 98.165 31.7216C98.6432 31.4233 99.2256 31.2741 99.9121 31.2741C100.608 31.2741 101.193 31.4209 101.666 31.7145C102.145 32.008 102.504 32.401 102.746 32.8935C102.992 33.3812 103.115 33.9186 103.115 34.5057V35.2727C103.115 35.8551 102.992 36.3925 102.746 36.8849C102.5 37.3726 102.137 37.7633 101.659 38.0568C101.181 38.3551 100.599 38.5043 99.9121 38.5043C99.2161 38.5043 98.6313 38.3551 98.1578 38.0568C97.6844 37.7633 97.3245 37.3726 97.0783 36.8849C96.8321 36.3925 96.709 35.8551 96.709 35.2727ZM98.7757 34.5057V35.2727C98.7757 35.6089 98.8562 35.9261 99.0172 36.2244C99.1829 36.5227 99.4812 36.6719 99.9121 36.6719C100.343 36.6719 100.637 36.5251 100.793 36.2315C100.954 35.938 101.034 35.6184 101.034 35.2727V34.5057C101.034 34.16 100.959 33.8381 100.807 33.5398C100.655 33.2415 100.357 33.0923 99.9121 33.0923C99.486 33.0923 99.19 33.2415 99.0243 33.5398C98.8586 33.8381 98.7757 34.16 98.7757 34.5057ZM89.2445 26.9489V26.1818C89.2445 25.5947 89.37 25.0573 89.6209 24.5696C89.8719 24.0772 90.2341 23.6842 90.7076 23.3906C91.1858 23.0971 91.7634 22.9503 92.4405 22.9503C93.1413 22.9503 93.7284 23.0971 94.2019 23.3906C94.6754 23.6842 95.0352 24.0772 95.2814 24.5696C95.5276 25.0573 95.6507 25.5947 95.6507 26.1818V26.9489C95.6507 27.536 95.5253 28.0734 95.2743 28.5611C95.0281 29.0488 94.6659 29.4394 94.1877 29.733C93.7142 30.0218 93.1318 30.1662 92.4405 30.1662C91.7492 30.1662 91.1645 30.0194 90.6863 29.7259C90.2128 29.4276 89.8529 29.0369 89.6067 28.554C89.3652 28.0663 89.2445 27.5312 89.2445 26.9489ZM91.3255 26.1818V26.9489C91.3255 27.2945 91.406 27.6141 91.5669 27.9077C91.7327 28.2012 92.0239 28.348 92.4405 28.348C92.8761 28.348 93.1721 28.2012 93.3283 27.9077C93.4893 27.6141 93.5698 27.2945 93.5698 26.9489V26.1818C93.5698 25.8362 93.494 25.5142 93.3425 25.2159C93.191 24.9176 92.8903 24.7685 92.4405 24.7685C92.0191 24.7685 91.7279 24.92 91.5669 25.223C91.406 25.526 91.3255 25.8456 91.3255 26.1818ZM90.182 38L100.182 23.4545H102.043L92.0428 38H90.182Z" fill="white"/>
</svg>
