<svg width="160" height="60" viewBox="0 0 160 60" fill="none" xmlns="http://www.w3.org/2000/svg">
<rect width="155" height="60" rx="15" fill="#686262" fill-opacity="0.8"/>
<rect x="155" y="17.7049" width="5" height="24.5902" fill="#686262" fill-opacity="0.8"/>
<rect x="8" y="5" width="10" height="50" rx="5" fill="#F90D0D"/>
<path d="M63.7864 38V35.7841L68.964 30.9901C69.4043 30.5639 69.7736 30.1804 70.0719 29.8395C70.3749 29.4986 70.6046 29.1648 70.7608 28.8381C70.9171 28.5066 70.9952 28.1491 70.9952 27.7656C70.9952 27.3395 70.8981 26.9725 70.704 26.6648C70.5099 26.3523 70.2447 26.1132 69.9086 25.9474C69.5724 25.777 69.1912 25.6918 68.7651 25.6918C68.32 25.6918 67.9318 25.7817 67.6003 25.9616C67.2689 26.1416 67.0132 26.3996 66.8333 26.7358C66.6533 27.072 66.5634 27.4721 66.5634 27.9361H63.6444C63.6444 26.9844 63.8598 26.1581 64.2907 25.4574C64.7215 24.7566 65.3252 24.2145 66.1017 23.831C66.8783 23.4474 67.7731 23.2557 68.7864 23.2557C69.8281 23.2557 70.7348 23.4403 71.5066 23.8097C72.2831 24.1742 72.8868 24.6809 73.3176 25.3295C73.7485 25.9782 73.964 26.7216 73.964 27.5597C73.964 28.1089 73.8551 28.651 73.6373 29.1861C73.4242 29.7211 73.043 30.3153 72.4938 30.9688C71.9445 31.6174 71.1704 32.3963 70.1713 33.3054L68.0478 35.3864V35.4858H74.1557V38H63.7864ZM84.3457 35.2727V34.5057C84.3457 33.9233 84.4688 33.3883 84.715 32.9006C84.966 32.4081 85.3282 32.0152 85.8017 31.7216C86.2799 31.4233 86.8623 31.2741 87.5488 31.2741C88.2449 31.2741 88.8296 31.4209 89.3031 31.7145C89.7813 32.008 90.1412 32.401 90.3826 32.8935C90.6288 33.3812 90.752 33.9186 90.752 34.5057V35.2727C90.752 35.8551 90.6288 36.3925 90.3826 36.8849C90.1364 37.3726 89.7742 37.7633 89.296 38.0568C88.8178 38.3551 88.2354 38.5043 87.5488 38.5043C86.8528 38.5043 86.2681 38.3551 85.7946 38.0568C85.3211 37.7633 84.9612 37.3726 84.715 36.8849C84.4688 36.3925 84.3457 35.8551 84.3457 35.2727ZM86.4125 34.5057V35.2727C86.4125 35.6089 86.493 35.9261 86.6539 36.2244C86.8197 36.5227 87.118 36.6719 87.5488 36.6719C87.9797 36.6719 88.2733 36.5251 88.4295 36.2315C88.5905 35.938 88.671 35.6184 88.671 35.2727V34.5057C88.671 34.16 88.5952 33.8381 88.4437 33.5398C88.2922 33.2415 87.9939 33.0923 87.5488 33.0923C87.1227 33.0923 86.8268 33.2415 86.661 33.5398C86.4953 33.8381 86.4125 34.16 86.4125 34.5057ZM76.8812 26.9489V26.1818C76.8812 25.5947 77.0067 25.0573 77.2576 24.5696C77.5086 24.0772 77.8708 23.6842 78.3443 23.3906C78.8225 23.0971 79.4002 22.9503 80.0772 22.9503C80.778 22.9503 81.3651 23.0971 81.8386 23.3906C82.3121 23.6842 82.6719 24.0772 82.9181 24.5696C83.1644 25.0573 83.2875 25.5947 83.2875 26.1818V26.9489C83.2875 27.536 83.162 28.0734 82.911 28.5611C82.6648 29.0488 82.3026 29.4394 81.8244 29.733C81.3509 30.0218 80.7685 30.1662 80.0772 30.1662C79.3859 30.1662 78.8012 30.0194 78.323 29.7259C77.8495 29.4276 77.4896 29.0369 77.2434 28.554C77.002 28.0663 76.8812 27.5312 76.8812 26.9489ZM78.9622 26.1818V26.9489C78.9622 27.2945 79.0427 27.6141 79.2037 27.9077C79.3694 28.2012 79.6606 28.348 80.0772 28.348C80.5128 28.348 80.8088 28.2012 80.965 27.9077C81.126 27.6141 81.2065 27.2945 81.2065 26.9489V26.1818C81.2065 25.8362 81.1307 25.5142 80.9792 25.2159C80.8277 24.9176 80.527 24.7685 80.0772 24.7685C79.6558 24.7685 79.3646 24.92 79.2037 25.223C79.0427 25.526 78.9622 25.8456 78.9622 26.1818ZM77.8187 38L87.8187 23.4545H89.6795L79.6795 38H77.8187Z" fill="white"/>
</svg>
