<svg width="178" height="62" viewBox="0 0 178 62" fill="none" xmlns="http://www.w3.org/2000/svg">
<rect width="178" height="62" rx="25" fill="#E7B27E"/>
<path d="M76.0138 27H71.3731V13.9091H76.0521C77.3689 13.9091 78.5024 14.1712 79.4527 14.6953C80.403 15.2152 81.1338 15.9631 81.6452 16.9389C82.1608 17.9148 82.4186 19.0824 82.4186 20.4418C82.4186 21.8054 82.1608 22.9773 81.6452 23.9574C81.1338 24.9375 80.3987 25.6896 79.4399 26.2138C78.4854 26.7379 77.3433 27 76.0138 27ZM74.1409 24.6286H75.8987C76.7169 24.6286 77.4051 24.4837 77.9633 24.1939C78.5258 23.8999 78.9477 23.446 79.229 22.8324C79.5145 22.2145 79.6572 21.4176 79.6572 20.4418C79.6572 19.4744 79.5145 18.6839 79.229 18.0703C78.9477 17.4567 78.528 17.005 77.9697 16.7152C77.4115 16.4254 76.7233 16.2805 75.9051 16.2805H74.1409V24.6286ZM85.9869 27H83.021L87.5402 13.9091H91.107L95.6198 27H92.6539L89.3747 16.9006H89.2725L85.9869 27ZM85.8016 21.8544H92.8073V24.0149H85.8016V21.8544ZM95.0924 13.9091H98.1926L101.178 19.5469H101.305L104.291 13.9091H107.391L102.616 22.3722V27H99.8673V22.3722L95.0924 13.9091ZM61.1698 35.9091L64.3339 45.8551H64.4553L67.6258 35.9091H70.694L66.1812 49H62.6144L58.0953 35.9091H61.1698ZM75.0374 35.9091V49H72.2696V35.9091H75.0374ZM84.4161 39.674C84.365 39.1584 84.1455 38.7578 83.7577 38.4723C83.3699 38.1868 82.8437 38.044 82.1789 38.044C81.7272 38.044 81.3458 38.108 81.0347 38.2358C80.7236 38.3594 80.485 38.532 80.3188 38.7536C80.1569 38.9751 80.0759 39.2266 80.0759 39.5078C80.0674 39.7422 80.1164 39.9467 80.2229 40.1214C80.3337 40.2962 80.485 40.4474 80.6768 40.5753C80.8685 40.6989 81.0901 40.8075 81.3415 40.9013C81.593 40.9908 81.8614 41.0675 82.1469 41.1314L83.3231 41.4126C83.8941 41.5405 84.4182 41.7109 84.8955 41.924C85.3728 42.1371 85.7861 42.3991 86.1356 42.7102C86.485 43.0213 86.7556 43.3878 86.9474 43.8097C87.1434 44.2315 87.2435 44.7152 87.2478 45.2607C87.2435 46.0618 87.039 46.7564 86.6341 47.3445C86.2336 47.9283 85.654 48.3821 84.8955 48.706C84.1412 49.0256 83.2314 49.1854 82.1661 49.1854C81.1093 49.1854 80.1888 49.0234 79.4047 48.6996C78.6249 48.3757 78.0155 47.8963 77.5766 47.2614C77.142 46.6222 76.914 45.8317 76.8927 44.8899H79.5709C79.6008 45.3288 79.7265 45.6953 79.9481 45.9893C80.1739 46.2791 80.4743 46.4986 80.8493 46.6477C81.2286 46.7926 81.6569 46.8651 82.1341 46.8651C82.6029 46.8651 83.0099 46.7969 83.355 46.6605C83.7045 46.5241 83.9751 46.3345 84.1668 46.0916C84.3586 45.8487 84.4545 45.5696 84.4545 45.2543C84.4545 44.9602 84.3671 44.7131 84.1924 44.5128C84.0219 44.3125 83.7705 44.142 83.4381 44.0014C83.11 43.8608 82.7073 43.733 82.23 43.6179L80.8046 43.2599C79.7009 42.9915 78.8295 42.5717 78.1903 42.0007C77.551 41.4297 77.2336 40.6605 77.2378 39.6932C77.2336 38.9006 77.4445 38.2081 77.8706 37.6158C78.301 37.0234 78.8912 36.5611 79.6412 36.2287C80.3912 35.8963 81.2435 35.7301 82.1981 35.7301C83.1697 35.7301 84.0177 35.8963 84.7421 36.2287C85.4708 36.5611 86.0376 37.0234 86.4424 37.6158C86.8472 38.2081 87.056 38.8942 87.0688 39.674H84.4161ZM91.8772 35.9091V49H89.1095V35.9091H91.8772ZM106.184 42.4545C106.184 43.8821 105.914 45.0966 105.372 46.098C104.835 47.0994 104.103 47.8643 103.174 48.3928C102.249 48.9169 101.209 49.179 100.054 49.179C98.8909 49.179 97.8469 48.9148 96.9221 48.3864C95.9974 47.858 95.2666 47.093 94.7297 46.0916C94.1927 45.0902 93.9243 43.8778 93.9243 42.4545C93.9243 41.027 94.1927 39.8125 94.7297 38.8111C95.2666 37.8097 95.9974 37.0469 96.9221 36.5227C97.8469 35.9943 98.8909 35.7301 100.054 35.7301C101.209 35.7301 102.249 35.9943 103.174 36.5227C104.103 37.0469 104.835 37.8097 105.372 38.8111C105.914 39.8125 106.184 41.027 106.184 42.4545ZM103.378 42.4545C103.378 41.5298 103.24 40.75 102.963 40.1151C102.69 39.4801 102.304 38.9986 101.806 38.6705C101.307 38.3423 100.723 38.1783 100.054 38.1783C99.3852 38.1783 98.8014 38.3423 98.3028 38.6705C97.8042 38.9986 97.4165 39.4801 97.1395 40.1151C96.8667 40.75 96.7304 41.5298 96.7304 42.4545C96.7304 43.3793 96.8667 44.1591 97.1395 44.794C97.4165 45.429 97.8042 45.9105 98.3028 46.2386C98.8014 46.5668 99.3852 46.7308 100.054 46.7308C100.723 46.7308 101.307 46.5668 101.806 46.2386C102.304 45.9105 102.69 45.429 102.963 44.794C103.24 44.1591 103.378 43.3793 103.378 42.4545ZM119.184 35.9091V49H116.793L111.098 40.7607H111.002V49H108.234V35.9091H110.663L116.314 44.142H116.429V35.9091H119.184Z" fill="white"/>
</svg>
