<svg width="178" height="62" viewBox="0 0 178 62" fill="none" xmlns="http://www.w3.org/2000/svg">
<rect width="178" height="62" rx="25" fill="#050A5C" fill-opacity="0.8"/>
<path d="M72.3735 13.9091V27H69.9829L64.2876 18.7607H64.1917V27H61.4239V13.9091H63.8529L69.5035 22.142H69.6185V13.9091H72.3735ZM77.428 13.9091V27H74.6602V13.9091H77.428ZM88.3856 18.1406C88.2961 17.8295 88.1704 17.5547 88.0084 17.3161C87.8465 17.0732 87.6483 16.8686 87.414 16.7024C87.1839 16.532 86.9197 16.402 86.6214 16.3125C86.3273 16.223 86.0013 16.1783 85.6434 16.1783C84.9743 16.1783 84.3863 16.3445 83.8792 16.6768C83.3763 17.0092 82.9843 17.4929 82.703 18.1278C82.4218 18.7585 82.2812 19.5298 82.2812 20.4418C82.2812 21.3537 82.4197 22.1293 82.6966 22.7685C82.9736 23.4077 83.3657 23.8956 83.8728 24.2322C84.3799 24.5646 84.9786 24.7308 85.6689 24.7308C86.2954 24.7308 86.8302 24.62 87.2733 24.3984C87.7208 24.1726 88.0617 23.8551 88.2961 23.446C88.5347 23.0369 88.654 22.5533 88.654 21.995L89.2165 22.0781H85.8415V19.9943H91.3195V21.6435C91.3195 22.794 91.0766 23.7827 90.5908 24.6094C90.105 25.4318 89.436 26.0668 88.5837 26.5142C87.7314 26.9574 86.7556 27.179 85.6562 27.179C84.4289 27.179 83.3508 26.9084 82.4218 26.3672C81.4928 25.8217 80.7684 25.0483 80.2485 24.0469C79.7329 23.0412 79.4751 21.848 79.4751 20.4673C79.4751 19.4062 79.6285 18.4602 79.9353 17.6293C80.2464 16.794 80.681 16.0866 81.2393 15.5071C81.7975 14.9276 82.4474 14.4865 83.1888 14.1839C83.9303 13.8814 84.7336 13.7301 85.5986 13.7301C86.3401 13.7301 87.0305 13.8388 87.6697 14.0561C88.3089 14.2692 88.8756 14.5717 89.3699 14.9638C89.8685 15.3558 90.2755 15.8224 90.5908 16.3636C90.9062 16.9006 91.1086 17.4929 91.1981 18.1406H88.3856ZM93.3985 27V13.9091H96.1663V19.3104H101.785V13.9091H104.546V27H101.785V21.5923H96.1663V27H93.3985ZM106.33 16.1911V13.9091H117.081V16.1911H113.073V27H110.337V16.1911H106.33ZM61.1698 35.9091L64.3339 45.8551H64.4553L67.6258 35.9091H70.694L66.1812 49H62.6144L58.0953 35.9091H61.1698ZM75.0374 35.9091V49H72.2696V35.9091H75.0374ZM84.4161 39.674C84.365 39.1584 84.1455 38.7578 83.7577 38.4723C83.3699 38.1868 82.8437 38.044 82.1789 38.044C81.7272 38.044 81.3458 38.108 81.0347 38.2358C80.7236 38.3594 80.485 38.532 80.3188 38.7536C80.1569 38.9751 80.0759 39.2266 80.0759 39.5078C80.0674 39.7422 80.1164 39.9467 80.2229 40.1214C80.3337 40.2962 80.485 40.4474 80.6768 40.5753C80.8685 40.6989 81.0901 40.8075 81.3415 40.9013C81.593 40.9908 81.8614 41.0675 82.1469 41.1314L83.3231 41.4126C83.8941 41.5405 84.4182 41.7109 84.8955 41.924C85.3728 42.1371 85.7861 42.3991 86.1356 42.7102C86.485 43.0213 86.7556 43.3878 86.9474 43.8097C87.1434 44.2315 87.2435 44.7152 87.2478 45.2607C87.2435 46.0618 87.039 46.7564 86.6341 47.3445C86.2336 47.9283 85.654 48.3821 84.8955 48.706C84.1412 49.0256 83.2314 49.1854 82.1661 49.1854C81.1093 49.1854 80.1888 49.0234 79.4047 48.6996C78.6249 48.3757 78.0155 47.8963 77.5766 47.2614C77.142 46.6222 76.914 45.8317 76.8927 44.8899H79.5709C79.6008 45.3288 79.7265 45.6953 79.9481 45.9893C80.1739 46.2791 80.4743 46.4986 80.8493 46.6477C81.2286 46.7926 81.6569 46.8651 82.1341 46.8651C82.6029 46.8651 83.0099 46.7969 83.355 46.6605C83.7045 46.5241 83.9751 46.3345 84.1668 46.0916C84.3586 45.8487 84.4545 45.5696 84.4545 45.2543C84.4545 44.9602 84.3671 44.7131 84.1924 44.5128C84.0219 44.3125 83.7705 44.142 83.4381 44.0014C83.11 43.8608 82.7073 43.733 82.23 43.6179L80.8046 43.2599C79.7009 42.9915 78.8295 42.5717 78.1903 42.0007C77.551 41.4297 77.2336 40.6605 77.2378 39.6932C77.2336 38.9006 77.4445 38.2081 77.8706 37.6158C78.301 37.0234 78.8912 36.5611 79.6412 36.2287C80.3912 35.8963 81.2435 35.7301 82.1981 35.7301C83.1697 35.7301 84.0177 35.8963 84.7421 36.2287C85.4708 36.5611 86.0376 37.0234 86.4424 37.6158C86.8472 38.2081 87.056 38.8942 87.0688 39.674H84.4161ZM91.8772 35.9091V49H89.1095V35.9091H91.8772ZM106.184 42.4545C106.184 43.8821 105.914 45.0966 105.372 46.098C104.835 47.0994 104.103 47.8643 103.174 48.3928C102.249 48.9169 101.209 49.179 100.054 49.179C98.8909 49.179 97.8469 48.9148 96.9221 48.3864C95.9974 47.858 95.2666 47.093 94.7297 46.0916C94.1927 45.0902 93.9243 43.8778 93.9243 42.4545C93.9243 41.027 94.1927 39.8125 94.7297 38.8111C95.2666 37.8097 95.9974 37.0469 96.9221 36.5227C97.8469 35.9943 98.8909 35.7301 100.054 35.7301C101.209 35.7301 102.249 35.9943 103.174 36.5227C104.103 37.0469 104.835 37.8097 105.372 38.8111C105.914 39.8125 106.184 41.027 106.184 42.4545ZM103.378 42.4545C103.378 41.5298 103.24 40.75 102.963 40.1151C102.69 39.4801 102.304 38.9986 101.806 38.6705C101.307 38.3423 100.723 38.1783 100.054 38.1783C99.3852 38.1783 98.8014 38.3423 98.3028 38.6705C97.8042 38.9986 97.4165 39.4801 97.1395 40.1151C96.8667 40.75 96.7304 41.5298 96.7304 42.4545C96.7304 43.3793 96.8667 44.1591 97.1395 44.794C97.4165 45.429 97.8042 45.9105 98.3028 46.2386C98.8014 46.5668 99.3852 46.7308 100.054 46.7308C100.723 46.7308 101.307 46.5668 101.806 46.2386C102.304 45.9105 102.69 45.429 102.963 44.794C103.24 44.1591 103.378 43.3793 103.378 42.4545ZM119.184 35.9091V49H116.793L111.098 40.7607H111.002V49H108.234V35.9091H110.663L116.314 44.142H116.429V35.9091H119.184Z" fill="white"/>
</svg>
