<svg width="135" height="155" viewBox="0 0 135 155" fill="none" xmlns="http://www.w3.org/2000/svg">
<path fill-rule="evenodd" clip-rule="evenodd" d="M20 0.36377C8.95431 0.36377 0 9.31807 0 20.3638V134.364C0 145.409 8.9543 154.364 20 154.364H115C126.046 154.364 135 145.409 135 134.364V20.3638C135 9.31808 126.046 0.36377 115 0.36377H20ZM21 30.3638C25.9706 30.3638 30 26.3343 30 21.3638C30 16.3932 25.9706 12.3638 21 12.3638C16.0295 12.3638 12 16.3932 12 21.3638C12 26.3343 16.0295 30.3638 21 30.3638ZM92 21.3638C92 26.3343 87.9706 30.3638 83 30.3638C78.0295 30.3638 74 26.3343 74 21.3638C74 16.3932 78.0295 12.3638 83 12.3638C87.9706 12.3638 92 16.3932 92 21.3638ZM114 30.3638C118.971 30.3638 123 26.3343 123 21.3638C123 16.3932 118.971 12.3638 114 12.3638C109.03 12.3638 105 16.3932 105 21.3638C105 26.3343 109.03 30.3638 114 30.3638ZM61 21.3638C61 26.3343 56.9706 30.3638 52 30.3638C47.0295 30.3638 43 26.3343 43 21.3638C43 16.3932 47.0295 12.3638 52 12.3638C56.9706 12.3638 61 16.3932 61 21.3638ZM21 80.3638C25.9706 80.3638 30 76.3343 30 71.3638C30 66.3932 25.9706 62.3638 21 62.3638C16.0295 62.3638 12 66.3932 12 71.3638C12 76.3343 16.0295 80.3638 21 80.3638ZM92 71.3638C92 76.3343 87.9706 80.3638 83 80.3638C78.0295 80.3638 74 76.3343 74 71.3638C74 66.3932 78.0295 62.3638 83 62.3638C87.9706 62.3638 92 66.3932 92 71.3638ZM114 80.3638C118.971 80.3638 123 76.3343 123 71.3638C123 66.3932 118.971 62.3638 114 62.3638C109.03 62.3638 105 66.3932 105 71.3638C105 76.3343 109.03 80.3638 114 80.3638ZM61 71.3638C61 76.3343 56.9706 80.3638 52 80.3638C47.0295 80.3638 43 76.3343 43 71.3638C43 66.3932 47.0295 62.3638 52 62.3638C56.9706 62.3638 61 66.3932 61 71.3638ZM21 55.3638C25.9706 55.3638 30 51.3343 30 46.3638C30 41.3932 25.9706 37.3638 21 37.3638C16.0295 37.3638 12 41.3932 12 46.3638C12 51.3343 16.0295 55.3638 21 55.3638ZM92 46.3638C92 51.3343 87.9706 55.3638 83 55.3638C78.0295 55.3638 74 51.3343 74 46.3638C74 41.3932 78.0295 37.3638 83 37.3638C87.9706 37.3638 92 41.3932 92 46.3638ZM114 55.3638C118.971 55.3638 123 51.3343 123 46.3638C123 41.3932 118.971 37.3638 114 37.3638C109.03 37.3638 105 41.3932 105 46.3638C105 51.3343 109.03 55.3638 114 55.3638ZM61 46.3638C61 51.3343 56.9706 55.3638 52 55.3638C47.0295 55.3638 43 51.3343 43 46.3638C43 41.3932 47.0295 37.3638 52 37.3638C56.9706 37.3638 61 41.3932 61 46.3638ZM39.074 105.727V117.364H44.0456C44.9168 117.364 45.6497 117.223 46.2444 116.943C46.8391 116.663 47.288 116.282 47.591 115.801C47.8979 115.316 48.0513 114.765 48.0513 114.148C48.0513 113.576 47.93 113.083 47.6876 112.67C47.4452 112.254 47.1289 111.93 46.7388 111.699C46.3524 111.468 45.9376 111.343 45.4944 111.324V111.21C45.8997 111.119 46.2596 110.966 46.574 110.75C46.8922 110.53 47.1422 110.25 47.324 109.909C47.5058 109.564 47.5967 109.165 47.5967 108.71C47.5967 108.127 47.4528 107.612 47.1649 107.165C46.877 106.714 46.4471 106.362 45.8751 106.108C45.3032 105.854 44.5891 105.727 43.7331 105.727H39.074ZM43.5399 115.352H41.5342V112.261H43.5967C43.9907 112.261 44.3297 112.331 44.6138 112.472C44.9016 112.612 45.1232 112.805 45.2785 113.051C45.4338 113.297 45.5115 113.581 45.5115 113.903C45.5115 114.343 45.3543 114.695 45.0399 114.96C44.7255 115.222 44.2255 115.352 43.5399 115.352ZM43.3581 110.597H41.5342V107.716H43.4035C43.949 107.716 44.3694 107.845 44.6649 108.102C44.9641 108.36 45.1138 108.699 45.1138 109.119C45.1138 109.426 45.0361 109.689 44.8808 109.909C44.7293 110.129 44.521 110.299 44.2558 110.42C43.9944 110.538 43.6952 110.597 43.3581 110.597ZM49.6521 105.727V117.364H52.1123V113.239H53.9082L56.1123 117.364H58.8282L56.3594 112.843C56.3948 112.828 56.4299 112.812 56.4646 112.795C57.0972 112.5 57.5801 112.076 57.9135 111.523C58.2468 110.966 58.4135 110.301 58.4135 109.528C58.4135 108.759 58.2487 108.091 57.9192 107.523C57.5934 106.951 57.118 106.509 56.493 106.199C55.8718 105.884 55.1218 105.727 54.243 105.727H49.6521ZM52.1123 111.261H53.7828C54.2525 111.261 54.6426 111.197 54.9532 111.068C55.2639 110.939 55.4949 110.746 55.6464 110.489C55.8017 110.231 55.8794 109.911 55.8794 109.528C55.8794 109.142 55.8017 108.816 55.6464 108.551C55.4949 108.286 55.262 108.085 54.9476 107.949C54.637 107.809 54.2449 107.739 53.7714 107.739H52.1123V111.261ZM59.5214 117.364H62.1578L63.021 114.71H67.2224L68.0839 117.364H70.7203L66.7089 105.727H63.5385L59.5214 117.364ZM66.5989 112.79L65.1692 108.386H65.0782L63.6457 112.79H66.5989ZM72.1209 105.727V117.364H74.5811V114.057L75.7913 112.579L78.9788 117.364H81.922L77.5527 110.937L81.8709 105.727H78.922L74.7345 110.858H74.5811V105.727H72.1209ZM83.1521 105.727V117.364H91.0157V115.335H85.6123V112.557H90.5896V110.528H85.6123V107.756H90.993V105.727H83.1521ZM29.5896 124.727V136.364H32.0498V132.239H33.8457L36.0498 136.364H38.7657L36.2969 131.843C36.3323 131.828 36.3674 131.812 36.4021 131.795C37.0347 131.5 37.5176 131.076 37.851 130.523C38.1843 129.966 38.351 129.301 38.351 128.528C38.351 127.759 38.1862 127.091 37.8567 126.523C37.5309 125.951 37.0555 125.509 36.4305 125.199C35.8093 124.884 35.0593 124.727 34.1805 124.727H29.5896ZM32.0498 130.261H33.7203C34.19 130.261 34.5801 130.197 34.8907 130.068C35.2014 129.939 35.4324 129.746 35.5839 129.489C35.7392 129.231 35.8169 128.911 35.8169 128.528C35.8169 128.142 35.7392 127.816 35.5839 127.551C35.4324 127.286 35.1995 127.085 34.8851 126.949C34.5745 126.809 34.1824 126.739 33.7089 126.739H32.0498V130.261ZM40.0896 124.727V136.364H47.9532V134.335H42.5498V131.557H47.5271V129.528H42.5498V126.756H47.9305V124.727H40.0896ZM54.8013 133.568L51.9888 124.727H49.2558L53.2729 136.364H56.4433L60.4547 124.727H57.7274L54.9092 133.568H54.8013ZM61.8552 124.727V136.364H69.7189V134.335H64.3155V131.557H69.2927V129.528H64.3155V126.756H69.6961V124.727H61.8552ZM71.6521 124.727V136.364H74.1123V132.239H75.9082L78.1123 136.364H80.8282L78.3594 131.843C78.3948 131.828 78.4299 131.812 78.4646 131.795C79.0972 131.5 79.5801 131.076 79.9135 130.523C80.2468 129.966 80.4135 129.301 80.4135 128.528C80.4135 127.759 80.2487 127.091 79.9192 126.523C79.5934 125.951 79.118 125.509 78.493 125.199C77.8718 124.884 77.1218 124.727 76.243 124.727H71.6521ZM74.1123 130.261H75.7828C76.2525 130.261 76.6426 130.197 76.9532 130.068C77.2639 129.939 77.4949 129.746 77.6464 129.489C77.8017 129.231 77.8794 128.911 77.8794 128.528C77.8794 128.142 77.8017 127.816 77.6464 127.551C77.4949 127.286 77.262 127.085 76.9476 126.949C76.637 126.809 76.2449 126.739 75.7714 126.739H74.1123V130.261ZM87.8794 127.006C88.2241 127.259 88.4192 127.615 88.4646 128.074H90.8226C90.8112 127.381 90.6256 126.771 90.2657 126.244C89.9059 125.718 89.4021 125.307 88.7544 125.011C88.1104 124.716 87.3567 124.568 86.493 124.568C85.6445 124.568 84.887 124.716 84.2203 125.011C83.5536 125.307 83.029 125.718 82.6464 126.244C82.2676 126.771 82.0801 127.386 82.0839 128.091C82.0801 128.951 82.3623 129.634 82.9305 130.142C83.4987 130.65 84.2733 131.023 85.2544 131.261L86.5214 131.579C86.9457 131.682 87.3036 131.795 87.5953 131.92C87.8907 132.045 88.1142 132.197 88.2657 132.375C88.4211 132.553 88.4987 132.773 88.4987 133.034C88.4987 133.314 88.4135 133.562 88.243 133.778C88.0726 133.994 87.832 134.163 87.5214 134.284C87.2146 134.405 86.8529 134.466 86.4362 134.466C86.012 134.466 85.6313 134.401 85.2942 134.273C84.9608 134.14 84.6938 133.945 84.493 133.687C84.2961 133.426 84.1843 133.1 84.1578 132.71H81.7771C81.7961 133.547 81.9987 134.25 82.3851 134.818C82.7752 135.383 83.3169 135.809 84.0101 136.097C84.707 136.384 85.5252 136.528 86.4646 136.528C87.4116 136.528 88.2203 136.386 88.8907 136.102C89.565 135.814 90.0801 135.411 90.4362 134.892C90.7961 134.369 90.9779 133.752 90.9817 133.04C90.9779 132.555 90.8889 132.125 90.7146 131.75C90.5442 131.375 90.3036 131.049 89.993 130.773C89.6824 130.496 89.315 130.263 88.8907 130.074C88.4665 129.884 88.0006 129.733 87.493 129.619L86.4476 129.369C86.1938 129.312 85.9551 129.244 85.7317 129.165C85.5082 129.081 85.3112 128.985 85.1407 128.875C84.9703 128.761 84.8358 128.627 84.7373 128.472C84.6426 128.316 84.5991 128.134 84.6067 127.926C84.6067 127.676 84.6786 127.453 84.8226 127.256C84.9703 127.059 85.1824 126.905 85.4589 126.795C85.7354 126.682 86.0745 126.625 86.476 126.625C87.0669 126.625 87.5347 126.752 87.8794 127.006ZM92.6365 124.727V136.364H100.5V134.335H95.0967V131.557H100.074V129.528H95.0967V126.756H100.477V124.727H92.6365Z" fill="#686262" fill-opacity="0.75"/>
</svg>
