<svg width="83" height="375" viewBox="0 0 83 375" fill="none" xmlns="http://www.w3.org/2000/svg">
<rect y="163" width="83" height="180" fill="#B1ABAB"/>
<rect y="343" width="83" height="32" fill="black"/>
<path fill-rule="evenodd" clip-rule="evenodd" d="M61.5424 120.125L60.9777 119L60.413 120.125H22.587L22.0223 119L21.4577 120.125H19.4777L20.4677 122.097L0 162.875H38.9554H40.9353L41.5 164L42.0647 162.875H44.0447H83L62.5323 122.097L63.5223 120.125H61.5424Z" fill="#D9D9D9"/>
<rect x="20" y="108" width="43" height="15" fill="black"/>
<rect x="31" y="77" width="20" height="34" fill="black"/>
<rect x="20" y="68" width="43" height="9" fill="black"/>
<rect x="37" y="35" width="10" height="33" fill="black"/>
<path d="M42.5 0L49.8612 39H35.1388L42.5 0Z" fill="black"/>
</svg>
