<svg width="642" height="642" viewBox="0 0 642 642" fill="none" xmlns="http://www.w3.org/2000/svg">
<path fill-rule="evenodd" clip-rule="evenodd" d="M320.5 608C479.282 608 608 479.282 608 320.5C608 161.718 479.282 33 320.5 33C161.718 33 33 161.718 33 320.5C33 479.282 161.718 608 320.5 608ZM321.094 572.506C456.256 572.506 565.826 459.414 565.826 319.908C565.826 180.403 456.256 67.3107 321.094 67.3107C185.933 67.3107 76.3627 180.403 76.3627 319.908C76.3627 459.414 185.933 572.506 321.094 572.506Z" fill="#4A1616"/>
<path fill-rule="evenodd" clip-rule="evenodd" d="M321 541C442.503 541 541 442.503 541 321C541 199.497 442.503 101 321 101C199.497 101 101 199.497 101 321C101 442.503 199.497 541 321 541ZM320.551 529.327C435.855 529.327 529.327 435.855 529.327 320.551C529.327 205.247 435.855 111.775 320.551 111.775C205.247 111.775 111.776 205.247 111.776 320.551C111.776 435.855 205.247 529.327 320.551 529.327Z" fill="#F90D0D"/>
<rect x="462" y="318" width="180" height="5" fill="#F90D0D"/>
<rect y="318" width="180" height="5" fill="#F90D0D"/>
<rect x="326" width="180" height="5" transform="rotate(90 326 0)" fill="#F90D0D"/>
<rect x="326" y="462" width="180" height="5" transform="rotate(90 326 462)" fill="#F90D0D"/>
<rect x="271" y="318" width="100" height="5" fill="#F90D0D"/>
<rect x="324" y="271" width="100" height="5" transform="rotate(90 324 271)" fill="#F90D0D"/>
</svg>
