<svg width="625" height="625" viewBox="0 0 625 625" fill="none" xmlns="http://www.w3.org/2000/svg">
<path fill-rule="evenodd" clip-rule="evenodd" d="M312.5 526.674C430.785 526.674 526.674 430.785 526.674 312.5C526.674 194.215 430.785 98.3256 312.5 98.3256C194.215 98.3256 98.3255 194.215 98.3255 312.5C98.3255 430.785 194.215 526.674 312.5 526.674ZM312.063 515.31C424.313 515.31 515.31 424.313 515.31 312.063C515.31 199.813 424.313 108.816 312.063 108.816C199.813 108.816 108.816 199.813 108.816 312.063C108.816 424.313 199.813 515.31 312.063 515.31Z" fill="#F90D0D"/>
<rect x="449.766" y="309.579" width="175.234" height="4.8676" fill="#F90D0D"/>
<rect y="309.579" width="175.234" height="4.8676" fill="#F90D0D"/>
<rect x="317.368" width="175.234" height="4.8676" transform="rotate(90 317.368 0)" fill="#F90D0D"/>
<rect x="317.368" y="449.766" width="175.234" height="4.8676" transform="rotate(90 317.368 449.766)" fill="#F90D0D"/>
<rect x="263.824" y="309.579" width="97.352" height="4.8676" fill="#F90D0D"/>
<rect x="315.421" y="263.824" width="97.352" height="4.8676" transform="rotate(90 315.421 263.824)" fill="#F90D0D"/>
</svg>
