<svg width="151" height="255" viewBox="0 0 151 255" fill="none" xmlns="http://www.w3.org/2000/svg">
<path fill-rule="evenodd" clip-rule="evenodd" d="M20.9637 0C9.91805 0 0.963745 8.9543 0.963745 20V235C0.963745 246.046 9.91805 255 20.9637 255H130.964C142.009 255 150.964 246.046 150.964 235V20C150.964 8.95431 142.009 0 130.964 0H20.9637ZM30.2701 156C35.1544 156 39.114 151.971 39.114 147C39.114 142.029 35.1544 138 30.2701 138C25.3857 138 21.4261 142.029 21.4261 147C21.4261 151.971 25.3857 156 30.2701 156ZM100.039 147C100.039 151.971 96.0794 156 91.195 156C86.3106 156 82.3511 151.971 82.3511 147C82.3511 142.029 86.3106 138 91.195 138C96.0794 138 100.039 142.029 100.039 147ZM121.657 156C126.542 156 130.501 151.971 130.501 147C130.501 142.029 126.542 138 121.657 138C116.773 138 112.813 142.029 112.813 147C112.813 151.971 116.773 156 121.657 156ZM69.5764 147C69.5764 151.971 65.6168 156 60.7325 156C55.8481 156 51.8885 151.971 51.8885 147C51.8885 142.029 55.8481 138 60.7325 138C65.6168 138 69.5764 142.029 69.5764 147ZM30.2701 181C35.1544 181 39.114 176.971 39.114 172C39.114 167.029 35.1544 163 30.2701 163C25.3857 163 21.4261 167.029 21.4261 172C21.4261 176.971 25.3857 181 30.2701 181ZM100.039 172C100.039 176.971 96.0794 181 91.195 181C86.3106 181 82.3511 176.971 82.3511 172C82.3511 167.029 86.3106 163 91.195 163C96.0794 163 100.039 167.029 100.039 172ZM121.657 181C126.542 181 130.501 176.971 130.501 172C130.501 167.029 126.542 163 121.657 163C116.773 163 112.813 167.029 112.813 172C112.813 176.971 116.773 181 121.657 181ZM69.5764 172C69.5764 176.971 65.6168 181 60.7325 181C55.8481 181 51.8885 176.971 51.8885 172C51.8885 167.029 55.8481 163 60.7325 163C65.6168 163 69.5764 167.029 69.5764 172ZM30.2701 81C35.1544 81 39.114 76.9706 39.114 72C39.114 67.0294 35.1544 63 30.2701 63C25.3857 63 21.4261 67.0294 21.4261 72C21.4261 76.9706 25.3857 81 30.2701 81ZM100.039 72C100.039 76.9706 96.0794 81 91.195 81C86.3106 81 82.3511 76.9706 82.3511 72C82.3511 67.0294 86.3106 63 91.195 63C96.0794 63 100.039 67.0294 100.039 72ZM121.657 81C126.542 81 130.501 76.9706 130.501 72C130.501 67.0294 126.542 63 121.657 63C116.773 63 112.813 67.0294 112.813 72C112.813 76.9706 116.773 81 121.657 81ZM69.5764 72C69.5764 76.9706 65.6168 81 60.7325 81C55.8481 81 51.8885 76.9706 51.8885 72C51.8885 67.0294 55.8481 63 60.7325 63C65.6168 63 69.5764 67.0294 69.5764 72ZM30.2701 131C35.1544 131 39.114 126.971 39.114 122C39.114 117.029 35.1544 113 30.2701 113C25.3857 113 21.4261 117.029 21.4261 122C21.4261 126.971 25.3857 131 30.2701 131ZM100.039 122C100.039 126.971 96.0794 131 91.195 131C86.3106 131 82.3511 126.971 82.3511 122C82.3511 117.029 86.3106 113 91.195 113C96.0794 113 100.039 117.029 100.039 122ZM121.657 131C126.542 131 130.501 126.971 130.501 122C130.501 117.029 126.542 113 121.657 113C116.773 113 112.813 117.029 112.813 122C112.813 126.971 116.773 131 121.657 131ZM69.5764 122C69.5764 126.971 65.6168 131 60.7325 131C55.8481 131 51.8885 126.971 51.8885 122C51.8885 117.029 55.8481 113 60.7325 113C65.6168 113 69.5764 117.029 69.5764 122ZM30.2701 106C35.1544 106 39.114 101.971 39.114 97C39.114 92.0294 35.1544 88 30.2701 88C25.3857 88 21.4261 92.0294 21.4261 97C21.4261 101.971 25.3857 106 30.2701 106ZM100.039 97C100.039 101.971 96.0794 106 91.195 106C86.3106 106 82.3511 101.971 82.3511 97C82.3511 92.0294 86.3106 88 91.195 88C96.0794 88 100.039 92.0294 100.039 97ZM121.657 106C126.542 106 130.501 101.971 130.501 97C130.501 92.0294 126.542 88 121.657 88C116.773 88 112.813 92.0294 112.813 97C112.813 101.971 116.773 106 121.657 106ZM69.5764 97C69.5764 101.971 65.6168 106 60.7325 106C55.8481 106 51.8885 101.971 51.8885 97C51.8885 92.0294 55.8481 88 60.7325 88C65.6168 88 69.5764 92.0294 69.5764 97ZM29.8077 205C34.692 205 38.6516 200.971 38.6516 196C38.6516 191.029 34.692 187 29.8077 187C24.9233 187 20.9637 191.029 20.9637 196C20.9637 200.971 24.9233 205 29.8077 205ZM99.5765 196C99.5765 200.971 95.617 205 90.7326 205C85.8482 205 81.8887 200.971 81.8887 196C81.8887 191.029 85.8482 187 90.7326 187C95.617 187 99.5765 191.029 99.5765 196ZM121.195 205C126.079 205 130.039 200.971 130.039 196C130.039 191.029 126.079 187 121.195 187C116.311 187 112.351 191.029 112.351 196C112.351 200.971 116.311 205 121.195 205ZM69.114 196C69.114 200.971 65.1544 205 60.2701 205C55.3857 205 51.4261 200.971 51.4261 196C51.4261 191.029 55.3857 187 60.2701 187C65.1544 187 69.114 191.029 69.114 196ZM30.2701 56C35.1544 56 39.114 51.9706 39.114 47C39.114 42.0294 35.1544 38 30.2701 38C25.3857 38 21.4261 42.0294 21.4261 47C21.4261 51.9706 25.3857 56 30.2701 56ZM100.039 47C100.039 51.9706 96.0794 56 91.195 56C86.3106 56 82.3511 51.9706 82.3511 47C82.3511 42.0294 86.3106 38 91.195 38C96.0794 38 100.039 42.0294 100.039 47ZM121.657 56C126.542 56 130.501 51.9706 130.501 47C130.501 42.0294 126.542 38 121.657 38C116.773 38 112.813 42.0294 112.813 47C112.813 51.9706 116.773 56 121.657 56ZM69.5764 47C69.5764 51.9706 65.6168 56 60.7325 56C55.8481 56 51.8885 51.9706 51.8885 47C51.8885 42.0294 55.8481 38 60.7325 38C65.6168 38 69.5764 42.0294 69.5764 47ZM30.2701 31C35.1544 31 39.114 26.9706 39.114 22C39.114 17.0294 35.1544 13 30.2701 13C25.3857 13 21.4261 17.0294 21.4261 22C21.4261 26.9706 25.3857 31 30.2701 31ZM100.039 22C100.039 26.9706 96.0794 31 91.195 31C86.3106 31 82.3511 26.9706 82.3511 22C82.3511 17.0294 86.3106 13 91.195 13C96.0794 13 100.039 17.0294 100.039 22ZM121.657 31C126.542 31 130.501 26.9706 130.501 22C130.501 17.0294 126.542 13 121.657 13C116.773 13 112.813 17.0294 112.813 22C112.813 26.9706 116.773 31 121.657 31ZM69.5764 22C69.5764 26.9706 65.6168 31 60.7325 31C55.8481 31 51.8885 26.9706 51.8885 22C51.8885 17.0294 55.8481 13 60.7325 13C65.6168 13 69.5764 17.0294 69.5764 22ZM52.0358 235.364H56.1608C57.3426 235.364 58.3578 235.131 59.2063 234.665C60.0586 234.199 60.712 233.53 61.1665 232.659C61.6248 231.788 61.854 230.746 61.854 229.534C61.854 228.326 61.6248 227.288 61.1665 226.42C60.712 225.553 60.0623 224.888 59.2176 224.426C58.3729 223.96 57.3654 223.727 56.1949 223.727H52.0358V235.364ZM56.0586 233.256H54.4961V225.835H56.0642C56.7915 225.835 57.4033 225.964 57.8995 226.222C58.3957 226.479 58.7688 226.881 59.0188 227.426C59.2726 227.972 59.3995 228.674 59.3995 229.534C59.3995 230.401 59.2726 231.11 59.0188 231.659C58.7688 232.204 58.3938 232.608 57.8938 232.869C57.3976 233.127 56.7858 233.256 56.0586 233.256ZM63.6765 223.727V235.364H66.1367V231.239H67.9325L70.1367 235.364H72.8526L70.3837 230.843C70.4192 230.828 70.4543 230.812 70.489 230.795C71.1215 230.5 71.6045 230.076 71.9378 229.523C72.2711 228.966 72.4378 228.301 72.4378 227.528C72.4378 226.759 72.273 226.091 71.9435 225.523C71.6177 224.951 71.1424 224.509 70.5174 224.199C69.8961 223.884 69.1461 223.727 68.2674 223.727H63.6765ZM66.1367 229.261H67.8071C68.2768 229.261 68.667 229.197 68.9776 229.068C69.2882 228.939 69.5193 228.746 69.6708 228.489C69.8261 228.231 69.9037 227.911 69.9037 227.528C69.9037 227.142 69.8261 226.816 69.6708 226.551C69.5193 226.286 69.2863 226.085 68.9719 225.949C68.6613 225.809 68.2693 225.739 67.7958 225.739H66.1367V229.261ZM76.6367 235.364V223.727H74.1765V235.364H76.6367ZM83.5756 232.568L80.7631 223.727H78.0301L82.0472 235.364H85.2176L89.229 223.727H86.5017L83.6836 232.568H83.5756ZM90.6296 223.727V235.364H98.4932V233.335H93.0898V230.557H98.0671V228.528H93.0898V225.756H98.4705V223.727H90.6296Z" fill="#686262" fill-opacity="0.75"/>
</svg>
