<svg width="151" height="255" viewBox="0 0 151 255" fill="none" xmlns="http://www.w3.org/2000/svg">
<path fill-rule="evenodd" clip-rule="evenodd" d="M20.9639 0C9.91817 0 0.963867 8.9543 0.963867 20V235C0.963867 246.046 9.91817 255 20.9639 255H130.964C142.01 255 150.964 246.046 150.964 235V20C150.964 8.95431 142.01 0 130.964 0H20.9639ZM30.2702 156C35.1546 156 39.1141 151.971 39.1141 147C39.1141 142.029 35.1546 138 30.2702 138C25.3858 138 21.4263 142.029 21.4263 147C21.4263 151.971 25.3858 156 30.2702 156ZM100.039 147C100.039 151.971 96.0795 156 91.1951 156C86.3108 156 82.3512 151.971 82.3512 147C82.3512 142.029 86.3108 138 91.1951 138C96.0795 138 100.039 142.029 100.039 147ZM121.658 156C126.542 156 130.501 151.971 130.501 147C130.501 142.029 126.542 138 121.658 138C116.773 138 112.814 142.029 112.814 147C112.814 151.971 116.773 156 121.658 156ZM69.5765 147C69.5765 151.971 65.617 156 60.7326 156C55.8482 156 51.8887 151.971 51.8887 147C51.8887 142.029 55.8482 138 60.7326 138C65.617 138 69.5765 142.029 69.5765 147ZM30.2702 181C35.1546 181 39.1141 176.971 39.1141 172C39.1141 167.029 35.1546 163 30.2702 163C25.3858 163 21.4263 167.029 21.4263 172C21.4263 176.971 25.3858 181 30.2702 181ZM100.039 172C100.039 176.971 96.0795 181 91.1951 181C86.3108 181 82.3512 176.971 82.3512 172C82.3512 167.029 86.3108 163 91.1951 163C96.0795 163 100.039 167.029 100.039 172ZM121.658 181C126.542 181 130.501 176.971 130.501 172C130.501 167.029 126.542 163 121.658 163C116.773 163 112.814 167.029 112.814 172C112.814 176.971 116.773 181 121.658 181ZM69.5765 172C69.5765 176.971 65.617 181 60.7326 181C55.8482 181 51.8887 176.971 51.8887 172C51.8887 167.029 55.8482 163 60.7326 163C65.617 163 69.5765 167.029 69.5765 172ZM30.2702 81C35.1546 81 39.1141 76.9706 39.1141 72C39.1141 67.0294 35.1546 63 30.2702 63C25.3858 63 21.4263 67.0294 21.4263 72C21.4263 76.9706 25.3858 81 30.2702 81ZM100.039 72C100.039 76.9706 96.0795 81 91.1951 81C86.3108 81 82.3512 76.9706 82.3512 72C82.3512 67.0294 86.3108 63 91.1951 63C96.0795 63 100.039 67.0294 100.039 72ZM121.658 81C126.542 81 130.501 76.9706 130.501 72C130.501 67.0294 126.542 63 121.658 63C116.773 63 112.814 67.0294 112.814 72C112.814 76.9706 116.773 81 121.658 81ZM69.5765 72C69.5765 76.9706 65.617 81 60.7326 81C55.8482 81 51.8887 76.9706 51.8887 72C51.8887 67.0294 55.8482 63 60.7326 63C65.617 63 69.5765 67.0294 69.5765 72ZM30.2702 131C35.1546 131 39.1141 126.971 39.1141 122C39.1141 117.029 35.1546 113 30.2702 113C25.3858 113 21.4263 117.029 21.4263 122C21.4263 126.971 25.3858 131 30.2702 131ZM100.039 122C100.039 126.971 96.0795 131 91.1951 131C86.3108 131 82.3512 126.971 82.3512 122C82.3512 117.029 86.3108 113 91.1951 113C96.0795 113 100.039 117.029 100.039 122ZM121.658 131C126.542 131 130.501 126.971 130.501 122C130.501 117.029 126.542 113 121.658 113C116.773 113 112.814 117.029 112.814 122C112.814 126.971 116.773 131 121.658 131ZM69.5765 122C69.5765 126.971 65.617 131 60.7326 131C55.8482 131 51.8887 126.971 51.8887 122C51.8887 117.029 55.8482 113 60.7326 113C65.617 113 69.5765 117.029 69.5765 122ZM30.2702 106C35.1546 106 39.1141 101.971 39.1141 97C39.1141 92.0294 35.1546 88 30.2702 88C25.3858 88 21.4263 92.0294 21.4263 97C21.4263 101.971 25.3858 106 30.2702 106ZM100.039 97C100.039 101.971 96.0795 106 91.1951 106C86.3108 106 82.3512 101.971 82.3512 97C82.3512 92.0294 86.3108 88 91.1951 88C96.0795 88 100.039 92.0294 100.039 97ZM121.658 106C126.542 106 130.501 101.971 130.501 97C130.501 92.0294 126.542 88 121.658 88C116.773 88 112.814 92.0294 112.814 97C112.814 101.971 116.773 106 121.658 106ZM69.5765 97C69.5765 101.971 65.617 106 60.7326 106C55.8482 106 51.8887 101.971 51.8887 97C51.8887 92.0294 55.8482 88 60.7326 88C65.617 88 69.5765 92.0294 69.5765 97ZM29.8078 205C34.6922 205 38.6517 200.971 38.6517 196C38.6517 191.029 34.6922 187 29.8078 187C24.9234 187 20.9639 191.029 20.9639 196C20.9639 200.971 24.9234 205 29.8078 205ZM99.5767 196C99.5767 200.971 95.6171 205 90.7327 205C85.8484 205 81.8888 200.971 81.8888 196C81.8888 191.029 85.8484 187 90.7327 187C95.6171 187 99.5767 191.029 99.5767 196ZM121.195 205C126.079 205 130.039 200.971 130.039 196C130.039 191.029 126.079 187 121.195 187C116.311 187 112.351 191.029 112.351 196C112.351 200.971 116.311 205 121.195 205ZM69.1141 196C69.1141 200.971 65.1546 205 60.2702 205C55.3858 205 51.4263 200.971 51.4263 196C51.4263 191.029 55.3858 187 60.2702 187C65.1546 187 69.1141 191.029 69.1141 196ZM30.2702 56C35.1546 56 39.1141 51.9706 39.1141 47C39.1141 42.0294 35.1546 38 30.2702 38C25.3858 38 21.4263 42.0294 21.4263 47C21.4263 51.9706 25.3858 56 30.2702 56ZM100.039 47C100.039 51.9706 96.0795 56 91.1951 56C86.3108 56 82.3512 51.9706 82.3512 47C82.3512 42.0294 86.3108 38 91.1951 38C96.0795 38 100.039 42.0294 100.039 47ZM121.658 56C126.542 56 130.501 51.9706 130.501 47C130.501 42.0294 126.542 38 121.658 38C116.773 38 112.814 42.0294 112.814 47C112.814 51.9706 116.773 56 121.658 56ZM69.5765 47C69.5765 51.9706 65.617 56 60.7326 56C55.8482 56 51.8887 51.9706 51.8887 47C51.8887 42.0294 55.8482 38 60.7326 38C65.617 38 69.5765 42.0294 69.5765 47ZM30.2702 31C35.1546 31 39.1141 26.9706 39.1141 22C39.1141 17.0294 35.1546 13 30.2702 13C25.3858 13 21.4263 17.0294 21.4263 22C21.4263 26.9706 25.3858 31 30.2702 31ZM100.039 22C100.039 26.9706 96.0795 31 91.1951 31C86.3108 31 82.3512 26.9706 82.3512 22C82.3512 17.0294 86.3108 13 91.1951 13C96.0795 13 100.039 17.0294 100.039 22ZM121.658 31C126.542 31 130.501 26.9706 130.501 22C130.501 17.0294 126.542 13 121.658 13C116.773 13 112.814 17.0294 112.814 22C112.814 26.9706 116.773 31 121.658 31ZM69.5765 22C69.5765 26.9706 65.617 31 60.7326 31C55.8482 31 51.8887 26.9706 51.8887 22C51.8887 17.0294 55.8482 13 60.7326 13C65.617 13 69.5765 17.0294 69.5765 22ZM52.0359 235.364H56.1609C57.3428 235.364 58.3579 235.131 59.2064 234.665C60.0587 234.199 60.7121 233.53 61.1666 232.659C61.625 231.788 61.8541 230.746 61.8541 229.534C61.8541 228.326 61.625 227.288 61.1666 226.42C60.7121 225.553 60.0625 224.888 59.2178 224.426C58.3731 223.96 57.3655 223.727 56.195 223.727H52.0359V235.364ZM56.0587 233.256H54.4962V225.835H56.0644C56.7916 225.835 57.4034 225.964 57.8996 226.222C58.3958 226.479 58.7689 226.881 59.0189 227.426C59.2727 227.972 59.3996 228.674 59.3996 229.534C59.3996 230.401 59.2727 231.11 59.0189 231.659C58.7689 232.204 58.3939 232.608 57.8939 232.869C57.3977 233.127 56.7859 233.256 56.0587 233.256ZM63.6766 223.727V235.364H66.1368V231.239H67.9327L70.1368 235.364H72.8527L70.3838 230.843C70.4193 230.828 70.4544 230.812 70.4891 230.795C71.1217 230.5 71.6046 230.076 71.9379 229.523C72.2713 228.966 72.4379 228.301 72.4379 227.528C72.4379 226.759 72.2732 226.091 71.9436 225.523C71.6179 224.951 71.1425 224.509 70.5175 224.199C69.8963 223.884 69.1463 223.727 68.2675 223.727H63.6766ZM66.1368 229.261H67.8073C68.277 229.261 68.6671 229.197 68.9777 229.068C69.2883 228.939 69.5194 228.746 69.6709 228.489C69.8262 228.231 69.9038 227.911 69.9038 227.528C69.9038 227.142 69.8262 226.816 69.6709 226.551C69.5194 226.286 69.2864 226.085 68.972 225.949C68.6614 225.809 68.2694 225.739 67.7959 225.739H66.1368V229.261ZM76.6368 235.364V223.727H74.1766V235.364H76.6368ZM83.5757 232.568L80.7632 223.727H78.0303L82.0473 235.364H85.2178L89.2291 223.727H86.5019L83.6837 232.568H83.5757ZM90.6297 223.727V235.364H98.4933V233.335H93.0899V230.557H98.0672V228.528H93.0899V225.756H98.4706V223.727H90.6297Z" fill="#F1ECEC"/>
</svg>
